PathFileType	4	(X/Y/Z)	1H_rest_fast_left.trc
DataRate	CameraRate	NumFrames	NumMarkers	Units	OrigDataRate	OrigDataStartFrame	OrigNumFrames
250.00	250.00	21	18	mm	250.00	6904	27614
Frame#	Time	c7	r_should	l_should	clavicle	r_upa	r_elb_l	r_elb_m	r_low	r_wri_l	r_wri_m	r_met	l_upa	l_elb_l	l_elb_m	l_low	l_wri_l	l_wri_m	l_met
	X1	Y1	Z1	X2	Y2	Z2	X3	Y3	Z3	X4	Y4	Z4	X5	Y5	Z5	X6	Y6	Z6	X7	Y7	Z7	X8	Y8	Z8	X9	Y9	Z9	X10	Y10	Z10	X11	Y11	Z11	X12	Y12	Z12	X13	Y13	Z13	X14	Y14	Z14	X15	Y15	Z15	X16	Y16	Z16	X17	Y17	Z17	X18	Y18	Z18
6904	27.61200	624.96448	1419.62756	256.62219	664.00122	1364.27112	418.90457	697.94446	1366.42078	97.90359	755.71051	1281.45239	261.95682	658.90131	1155.29907	488.94931	654.07849	1065.85046	509.14120	611.91888	1030.58862	436.52811	711.60498	891.00677	501.23645	740.55048	827.23700	475.69702	674.10040	804.08215	497.45029	777.79462	752.63177	507.21472	720.80646	1174.33899	34.32237	740.09589	1066.75342	32.75721	672.77753	1029.51050	84.75411	784.73077	903.85931	57.39290	810.35681	837.14868	100.49664	753.18683	804.51746	69.97523	865.14758	780.33044	82.94794
6905	27.61600	624.99084	1419.62244	256.64423	664.02917	1364.25928	418.92270	697.96191	1366.42517	97.91016	755.72394	1281.45276	261.95352	658.94678	1155.31531	488.97067	654.10602	1065.84814	509.14569	611.94141	1030.58862	436.51788	711.61865	890.98871	501.16681	740.55237	827.21924	475.62427	674.13245	804.10376	497.43137	777.82379	752.63165	507.14594	720.78192	1174.34241	34.31833	740.03992	1066.75439	32.74543	672.76270	1029.53870	84.78275	784.59894	903.82324	57.32249	810.19904	837.08551	100.39313	752.98242	804.48004	69.90595	864.93610	780.23578	82.79619
6906	27.62000	625.02618	1419.62085	256.66513	664.06274	1364.23779	418.93326	697.98706	1366.42871	97.91927	755.73883	1281.44507	261.94531	658.99835	1155.32214	488.98300	654.15216	1065.84094	509.14490	611.97504	1030.58850	436.50800	711.63385	890.96271	501.10220	740.56238	827.20697	475.54980	674.17889	804.12927	497.40869	777.85291	752.62695	507.07901	720.76630	1174.34399	34.31348	739.99274	1066.74951	32.73991	672.76965	1029.57104	84.81498	784.47150	903.77789	57.25649	810.04846	837.01074	100.28844	752.78412	804.45813	69.82838	864.73956	780.13531	82.65095
6907	27.62400	625.06226	1419.62671	256.68036	664.09637	1364.21960	418.94055	698.01312	1366.43591	97.92527	755.75439	1281.43384	261.94525	659.03168	1155.32178	488.98392	654.18842	1065.82556	509.12918	612.00452	1030.59167	436.48874	711.64771	890.93695	501.04462	740.57904	827.19434	475.47552	674.22186	804.13892	497.35840	777.87903	752.61353	506.99948	720.75128	1174.35242	34.31681	739.94714	1066.74817	32.73093	672.74872	1029.60425	84.82480	784.34235	903.73358	57.19089	809.89520	836.94080	100.18543	752.59460	804.44946	69.73756	864.55176	780.04364	82.49579
6908	27.62800	625.09357	1419.63977	256.68842	664.12555	1364.21460	418.95004	698.03339	1366.45605	97.93064	755.77185	1281.43457	261.95190	659.04437	1155.30530	488.96365	654.20093	1065.80957	509.09048	612.01984	1030.58252	436.44995	711.65887	890.91748	500.98550	740.59973	827.18951	475.39963	674.25201	804.12244	497.26123	777.89801	752.59119	506.89627	720.74072	1174.37158	34.32133	739.90607	1066.75537	32.72580	672.66565	1029.63086	84.78809	784.20709	903.69586	57.12112	809.74188	836.87793	100.08327	752.41315	804.43433	69.65627	864.35181	779.96191	82.34889
6909	27.63200	625.11780	1419.65540	256.69690	664.15863	1364.20996	418.95642	698.05011	1366.47705	97.93754	755.79419	1281.43335	261.95560	659.04181	1155.26379	488.91620	654.20294	1065.78235	509.03183	612.02045	1030.56445	436.40057	711.67920	890.90289	500.91840	740.62134	827.18506	475.32471	674.27216	804.06628	497.12790	777.90991	752.56000	506.77811	720.73090	1174.38513	34.32512	739.86407	1066.76245	32.72043	672.53870	1029.64490	84.72016	784.07745	903.65729	57.04809	809.59283	836.81812	99.97971	752.22766	804.42657	69.57996	864.15149	779.86871	82.20744
6910	27.63600	625.14368	1419.66528	256.71426	664.19281	1364.20081	418.96759	698.06622	1366.48901	97.94776	755.81885	1281.43665	261.95889	659.02820	1155.20886	488.86856	654.20404	1065.73511	508.96609	612.02130	1030.53772	436.35327	711.70544	890.88617	500.85419	740.63116	827.16797	475.25610	674.28601	803.98682	496.98880	777.92041	752.52356	506.66016	720.72229	1174.39124	34.33304	739.82104	1066.76404	32.71682	672.42236	1029.62915	84.66041	783.95392	903.61548	56.98007	809.44885	836.75879	99.87939	752.03687	804.41901	69.50124	863.94775	779.76941	82.06921
6911	27.64000	625.16357	1419.66956	256.72675	664.21820	1364.19080	418.98303	698.07581	1366.49585	97.95792	755.84222	1281.44043	261.96167	659.01764	1155.15796	488.83679	654.20880	1065.68860	508.91507	612.01764	1030.50696	436.31339	711.72986	890.87238	500.79190	740.62598	827.14453	475.19339	674.29889	803.91681	496.87531	777.92993	752.48505	506.55347	720.71460	1174.39868	34.34221	739.77789	1066.76453	32.71144	672.31622	1029.60986	84.62309	783.83075	903.57800	56.91416	809.30212	836.70160	99.77811	751.84222	804.39081	69.42119	863.74719	779.65814	81.93120
6912	27.64400	625.18048	1419.66589	256.73108	664.23926	1364.18164	418.98630	698.07544	1366.50427	97.96497	755.86810	1281.44897	261.95270	659.01526	1155.13611	488.82483	654.20740	1065.66406	508.88406	612.01996	1030.49072	436.27942	711.74768	890.86340	500.72430	740.61896	827.12720	475.13074	674.31390	803.86945	496.79733	777.94745	752.46222	506.45679	720.69806	1174.40979	34.34674	739.72943	1066.76953	32.70498	672.23926	1029.61157	84.60821	783.70709	903.55365	56.84585	809.15485	836.64990	99.67486	751.65222	804.35718	69.34713	863.54041	779.54663	81.79590
6913	27.64800	625.19507	1419.66528	256.73093	664.25732	1364.17700	418.98874	698.07568	1366.51660	97.96436	755.88519	1281.46033	261.94232	659.03375	1155.14807	488.82510	654.22522	1065.66260	508.86911	612.03290	1030.49255	436.25629	711.76660	890.85626	500.65543	740.61499	827.11304	475.06189	674.33533	803.86676	496.75467	777.97510	752.46320	506.36734	720.67517	1174.41992	34.34554	739.67737	1066.77393	32.69818	672.20142	1029.63416	84.62364	783.58582	903.52734	56.77343	809.00916	836.59473	99.57059	751.46344	804.32190	69.26724	863.33240	779.45056	81.64256
6914	27.65200	625.21039	1419.66797	256.74872	664.27368	1364.16907	418.99060	698.07629	1366.52808	97.96035	755.89227	1281.45996	261.93274	659.08105	1155.16809	488.84085	654.26007	1065.66956	508.86453	612.05988	1030.49890	436.23486	711.78625	890.84290	500.58771	740.61206	827.09723	474.99460	674.36627	803.90228	496.73758	778.01025	752.46765	506.29086	720.65826	1174.42554	34.33965	739.63080	1066.77405	32.68923	672.17981	1029.67712	84.65414	783.46350	903.48901	56.70047	808.86609	836.52582	99.46700	751.27881	804.28442	69.18587	863.13605	779.34930	81.49413
6915	27.65600	625.22949	1419.67004	256.77496	664.29871	1364.15771	418.99442	698.09045	1366.53394	97.95837	755.89642	1281.44775	261.92029	659.13519	1155.17761	488.85034	654.29816	1065.66663	508.85599	612.09882	1030.51038	436.21835	711.80585	890.81714	500.52023	740.61676	827.08179	474.92911	674.40179	803.94312	496.71719	778.04797	752.46271	506.21725	720.63898	1174.42871	34.33762	739.58984	1066.76758	32.68389	672.16553	1029.71777	84.67613	783.34497	903.44305	56.63658	808.71710	836.44733	99.36381	751.10925	804.24402	69.12140	862.95929	779.24548	81.35129
6916	27.66000	625.24908	1419.67444	256.78806	664.32440	1364.15173	418.99316	698.11060	1366.54468	97.96014	755.89917	1281.43530	261.91248	659.16089	1155.17737	488.83905	654.32434	1065.65649	508.83102	612.13580	1030.51440	436.18423	711.81976	890.79071	500.45621	740.69879	827.00775	474.71555	674.43066	803.95343	496.66125	778.08154	752.45111	506.12540	720.62061	1174.43591	34.33789	739.54858	1066.76538	32.67627	672.13489	1029.75403	84.67588	783.22266	903.39868	56.57379	808.56635	836.36682	99.26473	750.94629	804.20233	69.05080	862.78461	779.14453	81.20880
6917	27.66400	625.26855	1419.68518	256.78503	664.34521	1364.14966	418.99915	698.12402	1366.56335	97.95818	755.90216	1281.43359	261.90518	659.15875	1155.15466	488.80429	654.32892	1065.63538	508.78418	612.14990	1030.50732	436.12860	711.83606	890.76764	500.39340	740.88147	826.88281	474.31793	674.45245	803.92065	496.55435	778.09692	752.42426	506.01620	720.60266	1174.44299	34.33578	739.50732	1066.76843	32.66465	672.07098	1029.77014	84.64360	783.10248	903.35425	56.50579	808.42212	836.29395	99.16558	750.78033	804.17450	68.95916	862.60748	779.04492	81.07099
6918	27.66800	625.28625	1419.69580	256.78366	664.36877	1364.14917	419.01056	698.13232	1366.57764	97.95470	755.91687	1281.44312	261.90158	659.14447	1155.10339	488.74603	654.32812	1065.59448	508.71851	612.15295	1030.48706	436.07062	711.86078	890.75287	500.32120	740.94763	826.84662	474.15417	674.46759	803.86163	496.41870	778.10004	752.38672	505.89578	720.58630	1174.44922	34.33220	739.47101	1066.76697	32.65283	671.97382	1029.75269	84.59212	782.99023	903.31409	56.43329	808.28815	836.22681	99.06073	750.61121	804.15387	68.85698	862.42627	778.94391	80.93004
6919	27.67200	625.30298	1419.69275	256.79434	664.39294	1364.13904	419.01529	698.14355	1366.58044	97.95256	755.93707	1281.45349	261.89978	659.13672	1155.04492	488.69296	654.32770	1065.54199	508.66031	612.15991	1030.45337	436.01572	711.89691	890.73492	500.24945	740.99335	826.83020	474.05081	674.48364	803.79468	496.27899	778.10522	752.33789	505.76520	720.57098	1174.45251	34.32962	739.43927	1066.75818	32.64556	671.87158	1029.71216	84.54894	782.88782	903.27197	56.36679	808.16449	836.15887	98.96089	750.44440	804.12616	68.76507	862.23901	778.83240	80.78961
6920	27.67600	625.31342	1419.68933	256.80466	664.41034	1364.12170	419.02176	698.15192	1366.58142	97.95262	755.96429	1281.46045	261.88977	659.14490	1155.00391	488.66467	654.34296	1065.49622	508.61185	612.17108	1030.42542	435.96906	711.93536	890.72491	500.17560	741.02960	826.82117	473.96024	674.50214	803.74139	496.16440	778.12244	752.29626	505.64801	720.55518	1174.45569	34.32383	739.40912	1066.74756	32.64277	671.79462	1029.67603	84.52306	782.79419	903.22656	56.30082	808.04620	836.08984	98.86017	750.27527	804.09729	68.67563	862.05695	778.70593	80.65804
6921	27.68000	625.32074	1419.68799	256.81686	664.42462	1364.10852	419.02869	698.15039	1366.58569	97.95481	755.98639	1281.47046	261.87469	659.17108	1154.98584	488.64865	654.37177	1065.47803	508.58206	612.18524	1030.41382	435.94675	711.96960	890.71759	500.10492	741.05902	826.82300	473.87534	674.52551	803.71576	496.09680	778.15179	752.27917	505.55576	720.53644	1174.46118	34.31783	739.37567	1066.74524	32.64090	671.74951	1029.67065	84.52520	782.70148	903.18939	56.23989	807.92639	836.02533	98.76254	750.10254	804.07678	68.59615	861.87775	778.59125	80.52994
6922	27.68400	625.32733	1419.69092	256.82904	664.43481	1364.10498	419.03375	698.14911	1366.58960	97.95831	756.00275	1281.48132	261.86746	659.21240	1154.99573	488.65405	654.41168	1065.48523	508.57336	612.20898	1030.41626	435.94308	712.00262	890.71021	500.03510	741.08789	826.81848	473.79834	674.55872	803.72266	496.07162	778.19293	752.28845	505.48221	720.51404	1174.46777	34.31355	739.34265	1066.74597	32.63974	671.72424	1029.70239	84.55312	782.60999	903.15472	56.18649	807.80579	835.96576	98.67673	749.93335	804.04675	68.52442	861.69855	778.48029	80.40583
6923	27.68800	625.33295	1419.69629	256.84232	664.45093	1364.09949	419.03381	698.16132	1366.60046	97.95541	756.01477	1281.48865	261.86322	659.27014	1155.01746	488.67093	654.46338	1065.49329	508.57483	612.25037	1030.42627	435.93439	712.03503	890.69196	499.96793	741.11664	826.80536	473.71725	674.59662	803.75409	496.06448	778.24030	752.29944	505.41736	720.49579	1174.47009	34.31267	739.31464	1066.74573	32.64196	671.72192	1029.74438	84.59058	782.51617	903.11090	56.13436	807.68573	835.89532	98.59051	749.76740	804.01721	68.45110	861.52985	778.36884	80.27884
6924	27.69200	625.34235	1419.70911	256.85114	664.46899	1364.09900	419.03629	698.18066	1366.61584	97.94986	756.03375	1281.49207	261.85632	659.32904	1155.02710	488.67059	654.51190	1065.49548	508.56931	612.30231	1030.43628	435.91550	712.06354	890.66956	499.90533	741.14355	826.78900	473.63803	674.63568	803.78748	496.04071	778.28766	752.30554	505.34564	720.48541	1174.47290	34.31021	739.29663	1066.74036	32.64192	671.72412	1029.79016	84.61693	782.42017	903.05762	56.08479	807.56854	835.81677	98.50300	749.60614	803.98737	68.38536	861.36902	778.26923	80.15267
